<svg width="465" height="116" viewBox="0 0 465 116" fill="none" xmlns="http://www.w3.org/2000/svg">
<path d="M62.2031 20.75V89H45.7969L21.6562 46.5312V89H5.20312V20.75H21.6562L45.7969 63.2188V20.75H62.2031ZM69.8906 64.1562V63.1719C69.8906 59.4531 70.4219 56.0312 71.4844 52.9062C72.5469 49.75 74.1094 47.0156 76.1719 44.7031C78.2344 42.3906 80.7812 40.5938 83.8125 39.3125C86.8438 38 90.3438 37.3438 94.3125 37.3438C98.3125 37.3438 101.828 38 104.859 39.3125C107.922 40.5938 110.484 42.3906 112.547 44.7031C114.609 47.0156 116.172 49.75 117.234 52.9062C118.297 56.0312 118.828 59.4531 118.828 63.1719V64.1562C118.828 67.8438 118.297 71.2656 117.234 74.4219C116.172 77.5469 114.609 80.2812 112.547 82.625C110.484 84.9375 107.938 86.7344 104.906 88.0156C101.875 89.2969 98.375 89.9375 94.4062 89.9375C90.4375 89.9375 86.9219 89.2969 83.8594 88.0156C80.7969 86.7344 78.2344 84.9375 76.1719 82.625C74.1094 80.2812 72.5469 77.5469 71.4844 74.4219C70.4219 71.2656 69.8906 67.8438 69.8906 64.1562ZM85.6875 63.1719V64.1562C85.6875 66.0625 85.8281 67.8438 86.1094 69.5C86.3906 71.1562 86.8594 72.6094 87.5156 73.8594C88.1719 75.0781 89.0625 76.0312 90.1875 76.7188C91.3125 77.4062 92.7188 77.75 94.4062 77.75C96.0625 77.75 97.4375 77.4062 98.5312 76.7188C99.6562 76.0312 100.547 75.0781 101.203 73.8594C101.859 72.6094 102.328 71.1562 102.609 69.5C102.891 67.8438 103.031 66.0625 103.031 64.1562V63.1719C103.031 61.3281 102.891 59.5938 102.609 57.9688C102.328 56.3125 101.859 54.8594 101.203 53.6094C100.547 52.3281 99.6562 51.3281 98.5312 50.6094C97.4062 49.8906 96 49.5312 94.3125 49.5312C92.6562 49.5312 91.2656 49.8906 90.1406 50.6094C89.0469 51.3281 88.1719 52.3281 87.5156 53.6094C86.8594 54.8594 86.3906 56.3125 86.1094 57.9688C85.8281 59.5938 85.6875 61.3281 85.6875 63.1719ZM152.578 38.2812V49.25H122.016V38.2812H152.578ZM128.438 25.6719H144.234V72.4531C144.234 73.7969 144.391 74.8438 144.703 75.5938C145.016 76.3125 145.547 76.8281 146.297 77.1406C147.078 77.4219 148.109 77.5625 149.391 77.5625C150.297 77.5625 151.047 77.5469 151.641 77.5156C152.234 77.4531 152.797 77.375 153.328 77.2812V88.5781C151.984 89.0156 150.578 89.3438 149.109 89.5625C147.641 89.8125 146.078 89.9375 144.422 89.9375C141.047 89.9375 138.156 89.4062 135.75 88.3438C133.375 87.2812 131.562 85.6094 130.312 83.3281C129.062 81.0469 128.438 78.0781 128.438 74.4219V25.6719Z" fill="black"/>
<rect x="174" width="291" height="116" rx="30" fill="#F01C1C"/>
<path d="M203.953 82.8125L217.547 20.75H225.656L230.062 26.0469L215.578 89H206.625L203.953 82.8125ZM200.344 20.75L211.828 83.2812L208.875 89H198.516L184.031 20.75H200.344ZM237.516 82.9531L248.906 20.75H265.172L250.688 89H240.375L237.516 82.9531ZM231.516 20.75L245.438 83.1875L242.625 89H233.672L218.859 25.9531L223.453 20.75H231.516ZM295.641 76.25V55.3438C295.641 53.9062 295.438 52.6719 295.031 51.6406C294.625 50.6094 293.984 49.8125 293.109 49.25C292.234 48.6562 291.062 48.3594 289.594 48.3594C288.406 48.3594 287.391 48.5625 286.547 48.9688C285.703 49.375 285.062 49.9844 284.625 50.7969C284.188 51.6094 283.969 52.6406 283.969 53.8906H268.172C268.172 51.5469 268.688 49.375 269.719 47.375C270.781 45.3438 272.281 43.5781 274.219 42.0781C276.188 40.5781 278.531 39.4219 281.25 38.6094C284 37.7656 287.062 37.3438 290.438 37.3438C294.469 37.3438 298.062 38.0156 301.219 39.3594C304.406 40.7031 306.922 42.7188 308.766 45.4062C310.609 48.0625 311.531 51.4062 311.531 55.4375V76.2031C311.531 79.5156 311.719 82.0312 312.094 83.75C312.469 85.4375 313 86.9219 313.688 88.2031V89H297.844C297.094 87.4375 296.531 85.5312 296.156 83.2812C295.812 81 295.641 78.6562 295.641 76.25ZM297.562 58.0156L297.656 66.4531H290.672C289.203 66.4531 287.953 66.6562 286.922 67.0625C285.922 67.4688 285.109 68.0312 284.484 68.75C283.891 69.4375 283.453 70.2188 283.172 71.0938C282.922 71.9688 282.797 72.8906 282.797 73.8594C282.797 74.7969 283.016 75.6406 283.453 76.3906C283.922 77.1094 284.547 77.6719 285.328 78.0781C286.109 78.4844 286.984 78.6875 287.953 78.6875C289.703 78.6875 291.188 78.3594 292.406 77.7031C293.656 77.0156 294.609 76.1875 295.266 75.2188C295.922 74.25 296.25 73.3438 296.25 72.5L299.719 78.9688C299.094 80.2188 298.375 81.4844 297.562 82.7656C296.781 84.0469 295.797 85.2344 294.609 86.3281C293.453 87.3906 292.031 88.2656 290.344 88.9531C288.656 89.6094 286.609 89.9375 284.203 89.9375C281.078 89.9375 278.203 89.2969 275.578 88.0156C272.984 86.7344 270.906 84.9531 269.344 82.6719C267.781 80.3594 267 77.7031 267 74.7031C267 72.0781 267.469 69.7344 268.406 67.6719C269.375 65.6094 270.828 63.8594 272.766 62.4219C274.703 60.9844 277.172 59.8906 280.172 59.1406C283.172 58.3906 286.703 58.0156 290.766 58.0156H297.562ZM347.016 38.2812V49.25H316.453V38.2812H347.016ZM322.875 25.6719H338.672V72.4531C338.672 73.7969 338.828 74.8438 339.141 75.5938C339.453 76.3125 339.984 76.8281 340.734 77.1406C341.516 77.4219 342.547 77.5625 343.828 77.5625C344.734 77.5625 345.484 77.5469 346.078 77.5156C346.672 77.4531 347.234 77.375 347.766 77.2812V88.5781C346.422 89.0156 345.016 89.3438 343.547 89.5625C342.078 89.8125 340.516 89.9375 338.859 89.9375C335.484 89.9375 332.594 89.4062 330.188 88.3438C327.812 87.2812 326 85.6094 324.75 83.3281C323.5 81.0469 322.875 78.0781 322.875 74.4219V25.6719ZM374.719 77.75C376.188 77.75 377.438 77.4844 378.469 76.9531C379.531 76.3906 380.328 75.6094 380.859 74.6094C381.422 73.5781 381.688 72.3438 381.656 70.9062H396.516C396.547 74.7188 395.609 78.0625 393.703 80.9375C391.828 83.7812 389.266 86 386.016 87.5938C382.797 89.1562 379.156 89.9375 375.094 89.9375C371.125 89.9375 367.656 89.2969 364.688 88.0156C361.719 86.7031 359.234 84.8906 357.234 82.5781C355.266 80.2344 353.781 77.5 352.781 74.375C351.812 71.25 351.328 67.8594 351.328 64.2031V63.125C351.328 59.4688 351.812 56.0781 352.781 52.9531C353.781 49.7969 355.266 47.0625 357.234 44.75C359.234 42.4062 361.703 40.5938 364.641 39.3125C367.609 38 371.062 37.3438 375 37.3438C379.219 37.3438 382.938 38.1406 386.156 39.7344C389.406 41.3281 391.953 43.6406 393.797 46.6719C395.641 49.7031 396.547 53.375 396.516 57.6875H381.656C381.688 56.1562 381.453 54.7812 380.953 53.5625C380.453 52.3438 379.672 51.375 378.609 50.6562C377.578 49.9062 376.25 49.5312 374.625 49.5312C373 49.5312 371.688 49.8906 370.688 50.6094C369.688 51.3281 368.922 52.3281 368.391 53.6094C367.891 54.8594 367.547 56.2969 367.359 57.9219C367.203 59.5469 367.125 61.2812 367.125 63.125V64.2031C367.125 66.0781 367.203 67.8438 367.359 69.5C367.547 71.125 367.906 72.5625 368.438 73.8125C368.969 75.0312 369.734 76 370.734 76.7188C371.734 77.4062 373.062 77.75 374.719 77.75ZM418.734 17V89H402.938V17H418.734ZM416.859 61.9062L413.156 62C413.156 58.4375 413.594 55.1562 414.469 52.1562C415.344 49.1562 416.594 46.5469 418.219 44.3281C419.844 42.1094 421.797 40.3906 424.078 39.1719C426.359 37.9531 428.891 37.3438 431.672 37.3438C434.172 37.3438 436.453 37.7031 438.516 38.4219C440.609 39.1406 442.406 40.2969 443.906 41.8906C445.438 43.4844 446.609 45.5625 447.422 48.125C448.266 50.6875 448.688 53.8125 448.688 57.5V89H432.797V57.4062C432.797 55.3438 432.5 53.75 431.906 52.625C431.344 51.4688 430.531 50.6719 429.469 50.2344C428.406 49.7656 427.109 49.5312 425.578 49.5312C423.734 49.5312 422.234 49.8438 421.078 50.4688C419.922 51.0938 419.031 51.9688 418.406 53.0938C417.812 54.1875 417.406 55.4844 417.188 56.9844C416.969 58.4844 416.859 60.125 416.859 61.9062Z" fill="#F1E5E5"/>
<rect x="174" y="47" width="291" height="9" fill="black"/>
</svg>
