<svg width="460" height="116" viewBox="0 0 460 116" fill="none" xmlns="http://www.w3.org/2000/svg">
<rect width="460" height="116" fill="#F5F5F5"/>
<path d="M57.2031 20.75V89H40.7969L16.6562 46.5312V89H0.203125V20.75H16.6562L40.7969 63.2188V20.75H57.2031ZM64.8906 64.1562V63.1719C64.8906 59.4531 65.4219 56.0312 66.4844 52.9062C67.5469 49.75 69.1094 47.0156 71.1719 44.7031C73.2344 42.3906 75.7812 40.5938 78.8125 39.3125C81.8438 38 85.3438 37.3438 89.3125 37.3438C93.3125 37.3438 96.8281 38 99.8594 39.3125C102.922 40.5938 105.484 42.3906 107.547 44.7031C109.609 47.0156 111.172 49.75 112.234 52.9062C113.297 56.0312 113.828 59.4531 113.828 63.1719V64.1562C113.828 67.8438 113.297 71.2656 112.234 74.4219C111.172 77.5469 109.609 80.2812 107.547 82.625C105.484 84.9375 102.938 86.7344 99.9062 88.0156C96.875 89.2969 93.375 89.9375 89.4062 89.9375C85.4375 89.9375 81.9219 89.2969 78.8594 88.0156C75.7969 86.7344 73.2344 84.9375 71.1719 82.625C69.1094 80.2812 67.5469 77.5469 66.4844 74.4219C65.4219 71.2656 64.8906 67.8438 64.8906 64.1562ZM80.6875 63.1719V64.1562C80.6875 66.0625 80.8281 67.8438 81.1094 69.5C81.3906 71.1562 81.8594 72.6094 82.5156 73.8594C83.1719 75.0781 84.0625 76.0312 85.1875 76.7188C86.3125 77.4062 87.7188 77.75 89.4062 77.75C91.0625 77.75 92.4375 77.4062 93.5312 76.7188C94.6562 76.0312 95.5469 75.0781 96.2031 73.8594C96.8594 72.6094 97.3281 71.1562 97.6094 69.5C97.8906 67.8438 98.0312 66.0625 98.0312 64.1562V63.1719C98.0312 61.3281 97.8906 59.5938 97.6094 57.9688C97.3281 56.3125 96.8594 54.8594 96.2031 53.6094C95.5469 52.3281 94.6562 51.3281 93.5312 50.6094C92.4062 49.8906 91 49.5312 89.3125 49.5312C87.6562 49.5312 86.2656 49.8906 85.1406 50.6094C84.0469 51.3281 83.1719 52.3281 82.5156 53.6094C81.8594 54.8594 81.3906 56.3125 81.1094 57.9688C80.8281 59.5938 80.6875 61.3281 80.6875 63.1719ZM147.578 38.2812V49.25H117.016V38.2812H147.578ZM123.438 25.6719H139.234V72.4531C139.234 73.7969 139.391 74.8438 139.703 75.5938C140.016 76.3125 140.547 76.8281 141.297 77.1406C142.078 77.4219 143.109 77.5625 144.391 77.5625C145.297 77.5625 146.047 77.5469 146.641 77.5156C147.234 77.4531 147.797 77.375 148.328 77.2812V88.5781C146.984 89.0156 145.578 89.3438 144.109 89.5625C142.641 89.8125 141.078 89.9375 139.422 89.9375C136.047 89.9375 133.156 89.4062 130.75 88.3438C128.375 87.2812 126.562 85.6094 125.312 83.3281C124.062 81.0469 123.438 78.0781 123.438 74.4219V25.6719Z" fill="black"/>
<rect x="169" width="291" height="116" rx="30" fill="#F01C1C"/>
<path d="M198.953 82.8125L212.547 20.75H220.656L225.062 26.0469L210.578 89H201.625L198.953 82.8125ZM195.344 20.75L206.828 83.2812L203.875 89H193.516L179.031 20.75H195.344ZM232.516 82.9531L243.906 20.75H260.172L245.688 89H235.375L232.516 82.9531ZM226.516 20.75L240.438 83.1875L237.625 89H228.672L213.859 25.9531L218.453 20.75H226.516ZM290.641 76.25V55.3438C290.641 53.9062 290.438 52.6719 290.031 51.6406C289.625 50.6094 288.984 49.8125 288.109 49.25C287.234 48.6562 286.062 48.3594 284.594 48.3594C283.406 48.3594 282.391 48.5625 281.547 48.9688C280.703 49.375 280.062 49.9844 279.625 50.7969C279.188 51.6094 278.969 52.6406 278.969 53.8906H263.172C263.172 51.5469 263.688 49.375 264.719 47.375C265.781 45.3438 267.281 43.5781 269.219 42.0781C271.188 40.5781 273.531 39.4219 276.25 38.6094C279 37.7656 282.062 37.3438 285.438 37.3438C289.469 37.3438 293.062 38.0156 296.219 39.3594C299.406 40.7031 301.922 42.7188 303.766 45.4062C305.609 48.0625 306.531 51.4062 306.531 55.4375V76.2031C306.531 79.5156 306.719 82.0312 307.094 83.75C307.469 85.4375 308 86.9219 308.688 88.2031V89H292.844C292.094 87.4375 291.531 85.5312 291.156 83.2812C290.812 81 290.641 78.6562 290.641 76.25ZM292.562 58.0156L292.656 66.4531H285.672C284.203 66.4531 282.953 66.6562 281.922 67.0625C280.922 67.4688 280.109 68.0312 279.484 68.75C278.891 69.4375 278.453 70.2188 278.172 71.0938C277.922 71.9688 277.797 72.8906 277.797 73.8594C277.797 74.7969 278.016 75.6406 278.453 76.3906C278.922 77.1094 279.547 77.6719 280.328 78.0781C281.109 78.4844 281.984 78.6875 282.953 78.6875C284.703 78.6875 286.188 78.3594 287.406 77.7031C288.656 77.0156 289.609 76.1875 290.266 75.2188C290.922 74.25 291.25 73.3438 291.25 72.5L294.719 78.9688C294.094 80.2188 293.375 81.4844 292.562 82.7656C291.781 84.0469 290.797 85.2344 289.609 86.3281C288.453 87.3906 287.031 88.2656 285.344 88.9531C283.656 89.6094 281.609 89.9375 279.203 89.9375C276.078 89.9375 273.203 89.2969 270.578 88.0156C267.984 86.7344 265.906 84.9531 264.344 82.6719C262.781 80.3594 262 77.7031 262 74.7031C262 72.0781 262.469 69.7344 263.406 67.6719C264.375 65.6094 265.828 63.8594 267.766 62.4219C269.703 60.9844 272.172 59.8906 275.172 59.1406C278.172 58.3906 281.703 58.0156 285.766 58.0156H292.562ZM342.016 38.2812V49.25H311.453V38.2812H342.016ZM317.875 25.6719H333.672V72.4531C333.672 73.7969 333.828 74.8438 334.141 75.5938C334.453 76.3125 334.984 76.8281 335.734 77.1406C336.516 77.4219 337.547 77.5625 338.828 77.5625C339.734 77.5625 340.484 77.5469 341.078 77.5156C341.672 77.4531 342.234 77.375 342.766 77.2812V88.5781C341.422 89.0156 340.016 89.3438 338.547 89.5625C337.078 89.8125 335.516 89.9375 333.859 89.9375C330.484 89.9375 327.594 89.4062 325.188 88.3438C322.812 87.2812 321 85.6094 319.75 83.3281C318.5 81.0469 317.875 78.0781 317.875 74.4219V25.6719ZM369.719 77.75C371.188 77.75 372.438 77.4844 373.469 76.9531C374.531 76.3906 375.328 75.6094 375.859 74.6094C376.422 73.5781 376.688 72.3438 376.656 70.9062H391.516C391.547 74.7188 390.609 78.0625 388.703 80.9375C386.828 83.7812 384.266 86 381.016 87.5938C377.797 89.1562 374.156 89.9375 370.094 89.9375C366.125 89.9375 362.656 89.2969 359.688 88.0156C356.719 86.7031 354.234 84.8906 352.234 82.5781C350.266 80.2344 348.781 77.5 347.781 74.375C346.812 71.25 346.328 67.8594 346.328 64.2031V63.125C346.328 59.4688 346.812 56.0781 347.781 52.9531C348.781 49.7969 350.266 47.0625 352.234 44.75C354.234 42.4062 356.703 40.5938 359.641 39.3125C362.609 38 366.062 37.3438 370 37.3438C374.219 37.3438 377.938 38.1406 381.156 39.7344C384.406 41.3281 386.953 43.6406 388.797 46.6719C390.641 49.7031 391.547 53.375 391.516 57.6875H376.656C376.688 56.1562 376.453 54.7812 375.953 53.5625C375.453 52.3438 374.672 51.375 373.609 50.6562C372.578 49.9062 371.25 49.5312 369.625 49.5312C368 49.5312 366.688 49.8906 365.688 50.6094C364.688 51.3281 363.922 52.3281 363.391 53.6094C362.891 54.8594 362.547 56.2969 362.359 57.9219C362.203 59.5469 362.125 61.2812 362.125 63.125V64.2031C362.125 66.0781 362.203 67.8438 362.359 69.5C362.547 71.125 362.906 72.5625 363.438 73.8125C363.969 75.0312 364.734 76 365.734 76.7188C366.734 77.4062 368.062 77.75 369.719 77.75ZM413.734 17V89H397.938V17H413.734ZM411.859 61.9062L408.156 62C408.156 58.4375 408.594 55.1562 409.469 52.1562C410.344 49.1562 411.594 46.5469 413.219 44.3281C414.844 42.1094 416.797 40.3906 419.078 39.1719C421.359 37.9531 423.891 37.3438 426.672 37.3438C429.172 37.3438 431.453 37.7031 433.516 38.4219C435.609 39.1406 437.406 40.2969 438.906 41.8906C440.438 43.4844 441.609 45.5625 442.422 48.125C443.266 50.6875 443.688 53.8125 443.688 57.5V89H427.797V57.4062C427.797 55.3438 427.5 53.75 426.906 52.625C426.344 51.4688 425.531 50.6719 424.469 50.2344C423.406 49.7656 422.109 49.5312 420.578 49.5312C418.734 49.5312 417.234 49.8438 416.078 50.4688C414.922 51.0938 414.031 51.9688 413.406 53.0938C412.812 54.1875 412.406 55.4844 412.188 56.9844C411.969 58.4844 411.859 60.125 411.859 61.9062Z" fill="#F1E5E5"/>
<rect x="169" y="47" width="291" height="9" fill="black"/>
</svg>
